PathFileType	4	(X/Y/Z)	C:\Data\4407\4407cd05.trc
DataRate	CameraRate	NumFrames	NumMarkers	Units	OrigDataRate	OrigDataStartFrame	OrigNumFrames
200.00	200.00	      5	29	mm	200.00	251	      2000
Frame#	Time	Offset			RShoulder			RUpperArm			RElbow			RForearm			RWrist			LShoulder			LUpperArm			LElbow			LForearm			LWrist			LPSIS			RPSIS			RASIS			RThigh			RKnee			RShank			RAnkle			RHeel			RLat5			RToe			LASIS			LThigh			LKnee			LShank			LAnkle			LHeel			LLat5			LToe			
		X1	Y1	Z1	X2	Y2	Z2	X3	Y3	Z3	X4	Y4	Z4	X5	Y5	Z5	X6	Y6	Z6	X7	Y7	Z7	X8	Y8	Z8	X9	Y9	Z9	X10	Y10	Z10	X11	Y11	Z11	X12	Y12	Z12	X13	Y13	Z13	X14	Y14	Z14	X15	Y15	Z15	X16	Y16	Z16	X17	Y17	Z17	X18	Y18	Z18	X19	Y19	Z19	X20	Y20	Z20	X21	Y21	Z21	X22	Y22	Z22	X23	Y23	Z23	X24	Y24	Z24	X25	Y25	Z25	X26	Y26	Z26	X27	Y27	Z27	X28	Y28	Z28	X29	Y29	Z29	

251	1.250	302.56613	-265.89328	1361.27954	412.82242	-141.67946	1482.39514	434.94473	-294.62524	1360.14880	545.01459	-338.47955	1239.03943	512.17743	-283.01764	1077.64905	527.36517	-148.87086	1050.78015	70.51872	-150.42915	1465.56213	34.15434	-231.21690	1247.03271	-43.49735	-194.10632	1147.49194	-10.79436	-31.50684	1148.68091	-0.57035	49.72054	1273.36780	265.99893	-290.59094	990.72852	316.09598	-280.63998	990.06775	366.77032	-55.78050	974.74713	311.47217	93.83186	756.02130	384.66934	149.68739	561.61530	337.21170	109.79562	488.04349	360.03308	-243.43678	443.79272				300.64166	-263.44357	279.13446	406.83167	-257.81888	300.02222	119.44058	-105.72321	958.73627	164.34709	-96.81698	625.33301	140.51472	-181.17255	468.59451	192.77626	-178.01625	388.74106	209.09872	-413.94116	127.43488	254.48106	-485.54868	119.53276	191.96124	-288.97620	49.99080	306.39847	-289.57379	33.72374	
252	1.255	301.90891	-266.25403	1364.22937	412.99597	-144.18184	1486.72766	433.54407	-298.25378	1366.66150	543.10785	-344.28085	1245.75500	510.82013	-288.64920	1084.77075	527.14331	-154.31494	1059.09399	71.63386	-149.07246	1470.95325	31.21392	-226.02275	1251.85474	-44.90674	-185.77449	1152.87781	-9.00056	-23.94855	1158.87317	4.02698	52.92286	1286.17944	264.14020	-290.14841	997.07605	313.51648	-280.08777	993.62701	367.45401	-55.62013	980.04736	310.15790	96.04830	765.77600	383.15305	157.16571	573.21362	335.64612	120.97346	496.29077	362.26633	-231.38161	433.73587				299.64835	-241.75159	268.89838	406.24036	-236.12173	289.04587	120.04524	-103.29902	959.83795	166.25865	-104.53580	625.86829	141.05344	-194.69017	472.19272	193.17139	-193.17467	391.96243	207.89172	-430.75928	131.76157	253.86414	-502.02731	126.39376	191.96164	-309.12656	50.36503	306.11139	-309.53552	34.62316	
253	1.260	300.99106	-266.66275	1367.55664	413.29941	-146.79457	1491.12585	432.05545	-301.87259	1373.17896	541.10956	-349.94177	1252.64636	509.02573	-294.09851	1092.09888	526.50110	-159.58717	1066.58679	72.74643	-147.72902	1476.52771	28.54560	-221.22743	1257.01965	-46.38043	-177.88971	1158.65076	-6.74660	-17.03199	1169.19849	8.90978	55.52454	1298.91711	261.83374	-288.93652	1000.32483	311.26257	-279.34622	996.96527	368.00024	-55.49056	985.13684	309.13724	98.09820	775.48877	381.38681	166.43149	584.83197	333.34998	130.80815	504.61600	362.92731	-218.56395	423.44147	321.06277	-277.74469	466.06250	298.91763	-219.75070	259.39005	405.26370	-214.18689	278.38327	120.63732	-100.42190	961.27966	167.83240	-111.79639	627.03455	142.04933	-207.63359	476.34930	193.86241	-208.25024	396.05753	206.65868	-446.95636	136.11479	252.36981	-518.77661	134.36906	191.89120	-329.54456	50.38517	305.77603	-329.57062	35.68374	
254	1.265	299.96118	-266.99130	1370.80981	413.51303	-149.36983	1495.58008	430.86621	-305.21591	1379.86584	539.20697	-355.17468	1259.52856	507.00595	-299.08606	1099.50244	525.91296	-164.80078	1074.26208	74.67705	-146.58305	1482.31665	26.12299	-216.54805	1262.45422	-47.90370	-170.47070	1164.89880	-4.16948	-11.03054	1179.40210	13.92414	57.41726	1311.22595	259.54565	-287.14896	1004.00287	308.66257	-278.39285	1001.07733	368.51770	-55.15249	990.51038	308.11749	99.60628	785.18835	379.87537	172.29724	595.65784	333.21494	140.75558	513.30573	362.91669	-205.11172	412.90088	316.47141	-262.90027	452.21027	297.70828	-197.07915	250.18364	404.05673	-191.57329	268.33945	121.07204	-97.84546	963.00262	169.92657	-119.13367	628.38770	142.84045	-220.41893	481.26340	195.10439	-222.94333	401.02106	205.12004	-462.61453	141.30849	251.03886	-533.49347	142.77928	191.57236	-349.11710	50.90604	305.60760	-349.90222	36.88276	
255	1.270	298.54034	-268.39163	1374.38135	413.73532	-151.91707	1500.03845	429.52081	-308.48093	1386.48145	537.29651	-360.49814	1266.42725	504.81934	-303.99844	1106.89771	525.31018	-169.94899	1081.89868	74.99291	-145.05217	1488.17627	24.06833	-212.33086	1267.99963	-49.50111	-163.37416	1171.47192	-1.54137	-5.60982	1189.57776	19.23370	58.65365	1323.38794	257.49503	-285.26373	1007.06274	306.27765	-277.17325	1005.26300	368.65683	-54.75395	996.11841	307.12134	100.90807	794.48431	378.52698	177.10262	606.32318	332.39209	149.49455	521.34943	361.54776	-188.80441	402.94073	317.02213	-250.82805	439.02661	296.38550	-173.80054	241.24345	403.06052	-168.83849	258.90152	121.27699	-95.17577	965.39667	172.10365	-126.76223	630.35706	143.12189	-233.02193	486.85645	195.67868	-237.70396	406.90875	203.40381	-477.50061	146.64459	248.75856	-548.64191	152.07199	191.75819	-370.59866	50.82434	304.64026	-370.89203	38.28929	
